<?xml version="1.0" encoding="utf-8"?>
<!-- Generator: Adobe Illustrator 23.0.3, SVG Export Plug-In . SVG Version: 6.00 Build 0)  -->
<svg version="1.1" id="Layer_1" xmlns="http://www.w3.org/2000/svg" xmlns:xlink="http://www.w3.org/1999/xlink" x="0px" y="0px"
	 viewBox="0 0 1280 1024" style="enable-background:new 0 0 1280 1024;" xml:space="preserve">
<style type="text/css">
	.st0{fill:#E0FF0A;}
	.st1{fill:#FBEEE6;}
	.st2{fill:#EAA653;}
	.st3{fill:#B8564A;}
	.st4{fill:#163B2A;}
</style>
<path class="st0" d="M1376,977"/>
<path class="st0" d="M1491,788"/>
<rect class="st1" width="1280" height="1024"/>
<path class="st2" d="M0,1024V0h308c-12.99,58.42-7.32,102.04,1,132c12.94,46.6,38.08,80.99,22,104c-11.34,16.23-31.17,9.64-47,31
	c-11.42,15.42-14.5,36.97-10,54c10.19,38.55,59.17,53.9,85,62c66.05,20.7,86.47-3.16,112.1,12.72
	C542.12,439.71,441.8,653.28,509,706c43.78,34.35,102.04-41.05,209-12c47.12,12.8,89.81,42.6,118.64,74.51
	c5.08,5.62,9.73,11.31,13.9,16.98c1,1.36,3.88,6.98,7.25,14.57c7.83,17.6,18.34,45.79,14.2,55.95
	c-12.03,29.58-85.9,36.01-116.37,37.99c-24.13,1.57-59.8,2.07-125.63-6.99c-102.97-14.18-129.1-31.21-140-17
	c-20.12,26.24,26.51,119.12,88,132c27.96,5.86,37.51-9.32,106-9c57.41,0.27,69.05,11.02,72,19c1.64,4.44,0.91,8.87,0,12
	c174.5,0.17,349,0.33,523.5,0.5"/>
<path class="st3" d="M1308,251c-9.78,132.54-73.36,239.65-153,257c-79.23,17.27-185.59-51.94-229-80c-36.27-23.44-94.07-67.1-129-47
	c-4.97,2.86-7.71,6.4-9.85,8.17C763.32,408.73,715.12,446.85,606,525c-36.62,26.22-93.46,66.55-86,85c0.89,2.19,7.82,16.77,22,21
	c2.02,0.6,3.76,0.87,5,1c0.3,1.4,1.03,3.68,3,5c1.96,1.32,4.22,1.07,5,1c7.64-0.72,13.41,1.8,23,1c12.93-1.08,24.11-7.48,31-11
	c11.1-5.67,27.67-12.33,51-16c30.6-4.14,80.17-5.65,130,19c16.27,8.05,24,14,24,14c6.46,4.97,9.03,8.15,17,13
	c3.43,2.09,3.42,1.6,4.92,2.75c2.82,2.15,2.84,3.68,6.08,6.25c1.36,1.08,2.44,1.67,3,2c6.01,3.54,12.75,12.37,14,14
	c8.27,10.75,9.14,9.05,16,18c7.47,9.76,10.98,18.5,18,36c1.52,3.8,4.71,11.99,7,23c2.26,10.87,1.52,14.26,1,16
	c-2.69,9.07-11.18,13.85-15,16c-1.5,0.84-2.77,1.41-3.97,1.83c-7,2.46-12.41,3.51-14.44,3.81c-8.24,1.25-11.8,4.73-20.59,8.36
	c-6.13,2.53-14.76,3.69-32,6c-18.94,2.54-28.42,3.81-40,3c-5.11-0.36-5.7-0.71-19-2c0,0-11.6-1.12-24-2c-42.04-2.98-50.03,1.55-73-4
	c-18.34-4.43-17.82-8.42-33-10c-14.43-1.5-20.06,1.57-38-1c-9.06-1.3-17.15-3.45-23-5c-14.73-3.91-20.69-6.98-31-6
	c-5.5,0.52-10.84,1.03-15,5c-2.88,2.75-6.31,8.24-5,23c1.95,22.09,12.16,38.54,15,43c7.51,11.8,22.48,37.56,54,57
	c6.2,3.82,13.71,8.45,24,12c46.57,16.05,77.7-14.99,141-9c11.03,1.04,33.18,4.17,37,16c1.68,5.21-1.66,7.53,0,12
	c5.17,13.91,45.75,13.57,75,8c17.25-3.29,18.12-6.03,32-7c7.41-0.52,11.35-0.03,43,0c0,0,2.33,0,7,0c4.69,0,36,0,36,0
	c33.8,0,272.32,32.97,337,4C1379.65,920.04,1413.7,765.15,1308,251z"/>
<path class="st4" d="M865,120c-11.03-2.68,3-45.19-24-77c-3.22-3.8-17.36-20.46-32.95-18.18c-8.59,1.25-17.41,8.24-18.88,9.4
	C787.6,35.46,782.73,39.37,779,45c-8.84,13.33-6.55,29.16-6,33c4.91,34.07,41.83,43.5,38,62c-1.15,5.57-10.44,11.72-29,24
	c-18.41,12.18-24.51,13.14-34,23c-6.24,6.48-18.14,18.86-15,29c4.04,13.04,31.7,18.27,53,13c17.38-4.3,17.8-12.45,28-13
	c27.63-1.49,32.89,57.8,75,77c33.73,15.38,83.13,1.4,94.91-23.88c12.36-26.52-19.49-59.44-6.91-71.12
	c6.95-6.45,18.5,1.91,62.46,5.35c14.03,1.1,21.05,1.65,28.54,0.65c25.41-3.41,42.49-16.91,54-26c11.34-8.96,18.51-14.79,21-25
	c2.53-10.38-1.18-19.49-4-26c-15.75-36.42-23.63-54.63-37-68c-25.69-25.7-76.51-52.4-109-35c-38.06,20.38-35.54,93.02-43,92
	c-6.29-0.86-11.17-52.93-12.49-71.29c-0.31-4.25-0.92-13.68-6.51-23.71c-2.49-4.47-9.49-17.01-24-21
	c-11.03-3.03-27.12-1.31-33.9,8.82c-6.17,9.22-2.03,21.51,2.9,36.18c6.44,19.13,12.65,20.78,14,32
	C892.58,98.36,873.66,122.11,865,120z"/>
</svg>
