<?xml version="1.0" encoding="utf-8"?>
<!-- Generator: Adobe Illustrator 23.0.3, SVG Export Plug-In . SVG Version: 6.00 Build 0)  -->
<svg version="1.1" id="Layer_1" xmlns="http://www.w3.org/2000/svg" xmlns:xlink="http://www.w3.org/1999/xlink" x="0px" y="0px"
	 viewBox="0 0 512 512" style="enable-background:new 0 0 512 512;" xml:space="preserve">
<style type="text/css">
	.st0{fill:#AC7229;}
</style>
<path class="st0" d="M320.43,217.75c1.34-2.86,0.24-6.34-2.44-7.77c-2.68-1.43-5.94-0.25-7.27,2.61l-36.46,78.23
	c-0.68-0.21-1.37-0.34-2.09-0.34s-1.41,0.13-2.09,0.34l-36.46-78.23c-1.34-2.86-4.6-4.04-7.27-2.61c-2.69,1.43-3.78,4.91-2.44,7.77
	l37.98,81.5c0.16,0.35,0.39,0.63,0.6,0.93c-0.72,2.33-1.17,7.28-1.17,10.06h21.7c0-2.78-0.44-7.73-1.17-10.06
	c0.21-0.3,0.44-0.58,0.6-0.93L320.43,217.75z"/>
<path class="st0" d="M277.59,371.99v-46.35c0,0,48.83-110.08,130.21-110.08c0,0,53.81,85.45-37.98,104.28
	c0,0,86.81,57.94-5.43,133.25c0,0-37.98,17.38-48.83,5.79C304.72,447.3,277.59,371.99,277.59,371.99z"/>
<g>
	<polygon class="st0" points="283.02,360.4 337.27,458.89 321,464.68 299.3,435.72 277.59,366.19 	"/>
	<polygon class="st0" points="396.95,308.26 391.53,290.88 326.42,290.88 288.44,325.64 288.44,331.43 321,325.64 353.55,314.05 	
		"/>
</g>
<g>
	<path class="st0" d="M299.3,308.26c0,0,59.68-46.35,108.51-57.94l-5.43-23.17l-54.26,5.79l-54.26,69.52L299.3,308.26z"/>
	<path class="st0" d="M283.02,343.02v-11.59c0,0,54.26-17.38,81.38-11.59c27.13,5.79,43.4,46.35,32.55,46.35
		C386.1,366.19,283.02,343.02,283.02,343.02z"/>
</g>
<path class="st0" d="M272.17,375.13c10.06,35.37,29.36,93.22,48.37,94.94c2.94,0.27,5.83,0.4,8.66,0.4
	c29.27,0,52.95-14.26,72.19-43.39c12.23-18.52,15.94-41.48,10.16-62.98c-4.7-17.5-15.34-32.53-30.55-43.8c0.4,0,0.82,0.02,1.22,0.02
	c13.77,0,26.57-1.75,36.44-12.45c13.6-14.77,20.17-65.85,21.7-81.11c1.02-10.14-2.03-23.17-27.13-23.17
	c-83.42,0-141.06,119.15-141.06,127.84c0,0,6.95,3.71,19.88,3.71c9.91,0,23.32-2.18,39.8-9.89c8.34-3.9,17.22-5.06,26.17-5.29
	c0.08,0.04,0.13,0.12,0.21,0.15c6.02,2.7,11.47,5.94,16.41,9.58c-30.56-0.92-42.51,8.43-46.36,12.76
	c-28.07-4.68-48.7-3.85-50.25-3.78l-5.87,0.27L272.17,375.13L272.17,375.13z M362.63,247.2c-1.64,5.67-4.28,11.95-8.47,18.39
	c-24.02,11.14-42.23,24.43-54.73,35.33c12.01-19.54,30.05-43.88,52.53-61.63C357.27,235.09,364.57,240.46,362.63,247.2z
	 M394.21,251.17c-8.5,2.24-16.53,4.83-24.08,7.69c2.11-5.13,3.5-10.03,4.38-14.51c0.79-3.97,4.15-6.9,7.96-6.84
	c5.07,0.09,9.17,1.04,12.48,2.44C399.96,242.08,399.45,249.79,394.21,251.17z M408.41,289.08c-19.49-7.74-41.5-9.13-58.09-8.65
	c14.24-7.36,30.88-14.06,49.87-18.82c12-3.01,22.42,9.54,18.43,22c-0.03,0.11-0.07,0.21-0.1,0.32
	C417.08,288.38,412.54,290.72,408.41,289.08z M372.47,308.54c-3.55-0.11-7.13-0.21-10.71-0.21c-10.27,0-22.38,0.75-34.26,6.31
	c-12.56,5.88-24.41,8.86-35.22,8.9c6.13-6.56,17.84-17.87,35.05-29.48c4.49-0.7,30.23-4.32,56.22,0.13
	c8.26,1.41,7.38,14.53-0.98,14.55c-0.11,0-0.23,0-0.34,0C379.01,308.74,375.75,308.64,372.47,308.54z M387.42,359.49
	c-14.88-6.4-29.73-10.86-43.48-13.96c6.45-2.71,17.5-5.19,35.57-3.99c5.94,0.39,11.31,3.93,14.51,9.29
	c0.05,0.08,0.09,0.15,0.14,0.23C397,355.83,392.33,361.6,387.42,359.49z M383.4,396.14c-8.25-9.11-17.15-21.01-21.81-33.84
	c11.63,3.61,23.59,8.3,35.28,14.36c4.06,2.11,6.62,6.69,6.33,11.51c-0.02,0.26-0.03,0.52-0.05,0.78
	C402.39,399.33,390.17,403.62,383.4,396.14z M364.84,429.89c-19.1-31.87-52.49-63.42-70.7-79.39c13.01,0.66,32.93,2.66,55.02,8.28
	c5.34,22.3,22.45,42.1,34.31,53.63c5.22,5.08,5.43,13.6,0.7,19.2c-0.07,0.08-0.13,0.16-0.2,0.24
	C378.63,438.12,369.12,437.03,364.84,429.89z M291.69,363.47c19.19,17.28,50.12,47.59,66.3,76.59c3.05,5.47,0.43,12.54-5.2,14.63
	c-0.06,0.02-0.12,0.04-0.18,0.07c-4.17,1.53-8.79-0.32-11.09-4.34L291.69,363.47z M281.49,367.87l45.97,80.21
	c2.72,4.74-0.69,10.92-5.88,10.46c-0.04,0-0.08-0.01-0.12-0.01C312.05,457.67,294.31,413.41,281.49,367.87z"/>
<path class="st0" d="M266.74,371.99v-46.35c0,0-48.83-110.08-130.21-110.08c0,0-53.81,85.45,37.98,104.28
	c0,0-86.81,57.94,5.43,133.25c0,0,37.98,17.38,48.83,5.79C239.61,447.3,266.74,371.99,266.74,371.99z"/>
<g>
	<polygon class="st0" points="261.32,360.4 207.06,458.89 223.34,464.68 245.04,435.72 266.74,366.19 	"/>
	<polygon class="st0" points="147.38,308.26 152.81,290.88 217.91,290.88 255.89,325.64 255.89,331.43 223.34,325.64 190.78,314.05 
			"/>
</g>
<g>
	<path class="st0" d="M245.04,308.26c0,0-59.68-46.35-108.51-57.94l5.43-23.17l54.26,5.79l54.26,69.52L245.04,308.26z"/>
	<path class="st0" d="M261.32,343.02v-11.59c0,0-54.26-17.38-81.38-11.59c-27.13,5.79-43.4,46.35-32.55,46.35
		S261.32,343.02,261.32,343.02z"/>
</g>
<path class="st0" d="M272.17,338.95l-5.87-0.27c-1.55-0.08-22.17-0.9-50.25,3.78c-3.85-4.33-15.8-13.68-46.36-12.76
	c4.94-3.64,10.39-6.88,16.41-9.58c0.08-0.04,0.13-0.11,0.21-0.15c8.95,0.23,17.84,1.39,26.17,5.29c16.48,7.71,29.9,9.89,39.8,9.89
	c12.93,0,19.88-3.71,19.88-3.71c0-8.69-57.65-127.84-141.07-127.84c-25.09,0-28.15,13.04-27.13,23.17
	c1.53,15.26,8.1,66.34,21.7,81.11c9.86,10.71,22.67,12.45,36.44,12.45c0.4,0,0.82-0.02,1.22-0.02
	c-15.21,11.26-25.84,26.3-30.55,43.8c-5.78,21.51-2.08,44.46,10.16,62.98c19.24,29.13,42.92,43.39,72.19,43.39
	c2.84,0,5.72-0.14,8.66-0.4c19-1.72,38.31-59.57,48.37-94.94L272.17,338.95L272.17,338.95L272.17,338.95z M192.38,239.29
	c22.48,17.75,40.52,42.09,52.53,61.63c-12.5-10.9-30.72-24.18-54.73-35.33c-4.19-6.44-6.83-12.71-8.47-18.39
	C179.76,240.46,187.07,235.09,192.38,239.29z M149.39,239.95c3.3-1.41,7.4-2.36,12.48-2.44c3.8-0.06,7.17,2.86,7.96,6.84
	c0.89,4.49,2.27,9.39,4.38,14.51c-7.55-2.86-15.58-5.45-24.08-7.69C144.89,249.79,144.38,242.08,149.39,239.95z M125.82,283.93
	c-0.03-0.11-0.07-0.21-0.1-0.32c-3.99-12.46,6.42-25.01,18.43-22c19,4.76,35.63,11.46,49.87,18.82c-16.59-0.48-38.6,0.91-58.09,8.65
	C131.8,290.72,127.26,288.38,125.82,283.93z M162.12,308.74c-0.11,0-0.23,0-0.34,0c-8.36-0.02-9.24-13.14-0.98-14.55
	c26-4.45,51.73-0.83,56.22-0.13c17.21,11.61,28.92,22.92,35.05,29.48c-10.81-0.04-22.66-3.02-35.22-8.9
	c-11.89-5.56-23.99-6.31-34.26-6.31c-3.58,0-7.16,0.11-10.71,0.21C168.58,308.64,165.32,308.74,162.12,308.74z M150.18,351.05
	c0.05-0.08,0.09-0.15,0.14-0.23c3.21-5.35,8.58-8.89,14.51-9.29c18.08-1.19,29.12,1.28,35.57,3.99c-13.75,3.1-28.6,7.56-43.48,13.96
	C152,361.6,147.34,355.83,150.18,351.05z M141.19,388.96c-0.02-0.26-0.04-0.52-0.05-0.78c-0.29-4.81,2.26-9.4,6.33-11.51
	c11.68-6.07,23.64-10.75,35.28-14.36c-4.66,12.83-13.56,24.73-21.81,33.84C154.16,403.62,141.95,399.33,141.19,388.96z
	 M160.37,431.85c-0.07-0.08-0.13-0.16-0.2-0.24c-4.73-5.59-4.52-14.12,0.7-19.2c11.86-11.53,28.97-31.34,34.31-53.63
	c22.09-5.63,42.01-7.63,55.02-8.28c-18.21,15.97-51.6,47.53-70.7,79.39C175.21,437.03,165.71,438.12,160.37,431.85z M202.81,450.41
	c-2.3,4.02-6.92,5.87-11.09,4.34c-0.06-0.02-0.12-0.04-0.18-0.07c-5.63-2.09-8.25-9.16-5.2-14.63c16.18-29,47.11-59.31,66.3-76.59
	L202.81,450.41z M222.88,458.53c-0.04,0-0.08,0.01-0.12,0.01c-5.19,0.46-8.6-5.72-5.88-10.46l45.97-80.21
	C250.03,413.41,232.28,457.67,222.88,458.53z"/>
<path class="st0" d="M272.17,435.33c-3,0-5.43-2.59-5.43-5.79v-69.52c0-3.2,2.43-5.79,5.43-5.79s5.43,2.59,5.43,5.79v69.52
	C277.59,432.74,275.17,435.33,272.17,435.33z"/>
<path class="st0" d="M272.17,435.72L272.17,435.72c-3,0-5.43-2.59-5.43-5.79v-17.38c0-3.2,2.43-5.79,5.43-5.79l0,0
	c3,0,5.43,2.59,5.43,5.79v17.38C277.59,433.12,275.16,435.72,272.17,435.72z"/>
<ellipse class="st0" cx="272.17" cy="333.94" rx="16.28" ry="31.48"/>
</svg>
