<?xml version="1.0" encoding="utf-8"?>
<!-- Generator: Adobe Illustrator 23.0.3, SVG Export Plug-In . SVG Version: 6.00 Build 0)  -->
<svg version="1.1" id="Layer_1" xmlns="http://www.w3.org/2000/svg" xmlns:xlink="http://www.w3.org/1999/xlink" x="0px" y="0px"
	 viewBox="0 0 1280 1024" style="enable-background:new 0 0 1280 1024;" xml:space="preserve">
<style type="text/css">
	.st0{fill:#FFFFFF;}
	.st1{fill:#F7D5CB;}
	.st2{fill:none;stroke:#F7D5CB;stroke-width:0.75;stroke-miterlimit:10;}
	.st3{font-family:'HelveticaNeue-UltraLight';}
	.st4{font-size:16px;}
</style>
<g>
	
		<image style="overflow:visible;opacity:0.75;enable-background:new    ;" width="1234" height="602" xlink:href="52BAAF43DDA17626.png"  transform="matrix(1 0 0 1 5 218)">
	</image>
	<g>
		
			<image style="overflow:visible;enable-background:new    ;" width="1204" height="572" xlink:href="52BAAF43DDA1763A.jpeg"  transform="matrix(0.9983 0 0 0.9983 14.4771 226.0753)">
		</image>
	</g>
</g>
<image style="overflow:visible;enable-background:new    ;" width="16" height="16" xlink:href="52BAAF43DDA17620.png"  transform="matrix(0.8125 0 0 0.8125 772 579)">
</image>
<image style="overflow:visible;enable-background:new    ;" width="16" height="16" xlink:href="52BAAF43DDA1761A.png"  transform="matrix(0.8125 0 0 0.8125 745 582)">
</image>
<image style="overflow:visible;enable-background:new    ;" width="16" height="16" xlink:href="52BAAF43DDA1761B.png"  transform="matrix(0.7997 0.1437 -0.1437 0.7997 723.2985 585)">
</image>
<image style="overflow:visible;enable-background:new    ;" width="16" height="16" xlink:href="52BAAF43DDA1761C.png"  transform="matrix(0.8125 0 0 0.8125 699 578)">
</image>
<image style="overflow:visible;enable-background:new    ;" width="16" height="16" xlink:href="52BAAF43DDA1761D.png"  transform="matrix(0.8125 0 0 0.8125 676 576)">
</image>
<g>
	<g>
		<path class="st0" d="M505.8,109.8c0.8,0.7,1.6,1.4,2.5,2.2c0.6,0.6,1.5,0.6,2.1,0c0.6-0.6,0.6-1.6,0-2.1c-0.8-0.8-1.6-1.5-2.5-2.2
			c-0.6-0.5-1.5-0.6-2.1,0C505.3,108.2,505.2,109.3,505.8,109.8L505.8,109.8z"/>
	</g>
</g>
<g>
	<g>
		<path class="st1" d="M967.4,335.1c5.8,0,5.8-8.9,0-8.9C961.6,326.1,961.6,335.1,967.4,335.1L967.4,335.1z"/>
	</g>
</g>
<g>
	<g>
		<path class="st1" d="M1015.5,278.9c5.8,0,5.8-8.9,0-8.9C1009.8,269.9,1009.8,278.9,1015.5,278.9L1015.5,278.9z"/>
	</g>
</g>
<g>
	<g>
		<path class="st1" d="M1142,286.9c5.8,0,5.8-8.9,0-8.9C1136.2,278,1136.2,286.9,1142,286.9L1142,286.9z"/>
	</g>
</g>
<g>
	<g>
		<path class="st1" d="M1158.1,246.8c5.8,0,5.8-8.9,0-8.9C1152.3,237.8,1152.3,246.8,1158.1,246.8L1158.1,246.8z"/>
	</g>
</g>
<g>
	<g>
		<path class="st1" d="M1089.8,166.5c5.8,0,5.8-8.9,0-8.9C1084.1,157.5,1084.1,166.5,1089.8,166.5L1089.8,166.5z"/>
	</g>
</g>
<g>
	<g>
		<path class="st1" d="M1152,166.5c5.8,0,5.8-8.9,0-8.9C1146.3,157.5,1146.3,166.5,1152,166.5L1152,166.5z"/>
	</g>
</g>
<g>
	<g>
		<path class="st1" d="M1009.5,178.5c5.8,0,5.8-8.9,0-8.9C1003.8,169.6,1003.8,178.5,1009.5,178.5L1009.5,178.5z"/>
	</g>
</g>
<g>
	<g>
		<path class="st1" d="M1077.8,280.9c5.8,0,5.8-8.9,0-8.9C1072,271.9,1072,280.9,1077.8,280.9L1077.8,280.9z"/>
	</g>
</g>
<g>
	<g>
		<path class="st1" d="M1089.8,212.6c5.8,0,5.8-8.9,0-8.9C1084.1,203.7,1084.1,212.6,1089.8,212.6L1089.8,212.6z"/>
	</g>
</g>
<g>
	<g>
		<path class="st1" d="M922.6,121.5c5.8,0,5.8-8.9,0-8.9C916.8,112.6,916.8,121.5,922.6,121.5L922.6,121.5z"/>
	</g>
</g>
<g>
	<g>
		<path class="st1" d="M928.3,176.3c5.8,0,5.8-8.9,0-8.9C922.5,167.4,922.5,176.3,928.3,176.3L928.3,176.3z"/>
	</g>
</g>
<g>
	<g>
		<path class="st1" d="M990.6,95.1c5.8,0,5.8-8.9,0-8.9C984.9,86.1,984.9,95.1,990.6,95.1L990.6,95.1z"/>
	</g>
</g>
<text transform="matrix(6.123234e-17 -1 1 6.123234e-17 67.4106 354.3936)" class="st2 st3 st4">ANNA YOUNG</text>
</svg>
