<?xml version="1.0" encoding="utf-8"?>
<!-- Generator: Adobe Illustrator 23.0.3, SVG Export Plug-In . SVG Version: 6.00 Build 0)  -->
<svg version="1.1" id="Layer_1" xmlns="http://www.w3.org/2000/svg" xmlns:xlink="http://www.w3.org/1999/xlink" x="0px" y="0px"
	 viewBox="0 0 512 512" style="enable-background:new 0 0 512 512;" xml:space="preserve">
<style type="text/css">
	.st0{fill:#AC7229;}
	.st1{fill:none;}
</style>
<path class="st0" d="M353.92,211.02c1.45-3.03,0.26-6.72-2.65-8.22c-2.91-1.52-6.44-0.27-7.89,2.76l-39.56,82.83
	c-0.73-0.22-1.49-0.36-2.26-0.36c-0.78,0-1.53,0.13-2.26,0.36l-39.56-82.83c-1.45-3.03-4.99-4.28-7.89-2.76
	c-2.91,1.51-4.1,5.19-2.65,8.22l41.21,86.28c0.18,0.37,0.42,0.67,0.65,0.98c-0.78,2.46-1.27,7.71-1.27,10.65h23.55
	c0-2.94-0.48-8.18-1.27-10.65c0.23-0.31,0.48-0.62,0.65-0.98L353.92,211.02z"/>
<path class="st1" d="M307.44,374.31v-49.07c0,0,52.98-116.54,141.28-116.54c0,0,58.38,90.47-41.21,110.41
	c0,0,94.19,61.34-5.89,141.08c0,0-41.21,18.4-52.98,6.13C336.87,454.05,307.44,374.31,307.44,374.31z"/>
<g>
	<polygon class="st1" points="313.33,362.04 372.19,466.32 354.53,472.45 330.99,441.78 307.44,368.18 	"/>
	<polygon class="st1" points="436.95,306.84 431.06,288.44 360.42,288.44 319.21,325.24 319.21,331.37 354.53,325.24 389.85,312.97 
			"/>
</g>
<g>
	<path class="st1" d="M330.99,306.84c0,0,64.75-49.07,117.73-61.34l-5.89-24.54l-58.87,6.13L325.1,300.7L330.99,306.84z"/>
	<path class="st1" d="M313.33,343.64v-12.27c0,0,58.87-18.4,88.3-12.27c29.43,6.13,47.09,49.07,35.32,49.07
		S313.33,343.64,313.33,343.64z"/>
</g>
<path class="st0" d="M301.55,377.64c10.92,37.45,31.86,98.7,52.48,100.52c3.19,0.28,6.32,0.43,9.4,0.43
	c31.76,0,57.45-15.1,78.33-45.94c13.27-19.61,17.29-43.91,11.02-66.68c-5.1-18.53-16.64-34.45-33.14-46.37
	c0.44,0,0.89,0.03,1.32,0.03c14.94,0,28.83-1.85,39.53-13.18c14.76-15.63,21.89-69.72,23.55-85.88c1.1-10.73-2.21-24.54-29.43-24.54
	c-90.51,0-153.05,126.15-153.05,135.35c0,0,7.54,3.93,21.57,3.93c10.75,0,25.31-2.31,43.19-10.47c9.04-4.13,18.69-5.36,28.4-5.6
	c0.09,0.04,0.14,0.12,0.23,0.16c6.53,2.85,12.44,6.29,17.8,10.14c-33.16-0.97-46.13,8.93-50.3,13.51c-30.46-4.95-52.84-4.08-54.52-4
	l-6.37,0.29L301.55,377.64L301.55,377.64z M399.7,242.2c-1.78,6.01-4.64,12.65-9.19,19.47c-26.06,11.8-45.82,25.86-59.38,37.4
	c13.03-20.68,32.6-46.45,56.99-65.25C393.89,229.37,401.81,235.06,399.7,242.2z M433.97,246.4c-9.23,2.37-17.94,5.12-26.13,8.14
	c2.29-5.43,3.79-10.62,4.76-15.37c0.85-4.21,4.51-7.31,8.63-7.24c5.5,0.09,9.95,1.1,13.54,2.58
	C440.2,236.78,439.65,244.94,433.97,246.4z M449.37,286.54c-21.14-8.2-45.03-9.67-63.02-9.16c15.45-7.79,33.5-14.88,54.11-19.93
	c13.02-3.19,24.33,10.1,20,23.29c-0.04,0.11-0.07,0.23-0.11,0.34C458.78,285.79,453.85,288.27,449.37,286.54z M410.38,307.14
	c-3.85-0.11-7.73-0.22-11.62-0.22c-11.14,0-24.28,0.79-37.17,6.68c-13.63,6.22-26.49,9.38-38.22,9.42
	c6.65-6.95,19.36-18.92,38.03-31.21c4.88-0.74,32.8-4.57,61,0.14c8.96,1.49,8.01,15.38-1.07,15.4c-0.12,0-0.25,0-0.37,0
	C417.48,307.35,413.94,307.24,410.38,307.14z M426.6,361.08c-16.15-6.78-32.26-11.5-47.18-14.78c7-2.87,18.98-5.49,38.6-4.23
	c6.44,0.41,12.27,4.17,15.75,9.83c0.05,0.08,0.1,0.16,0.15,0.24C436.99,357.2,431.93,363.31,426.6,361.08z M422.24,399.89
	c-8.95-9.64-18.6-22.25-23.66-35.83c12.62,3.82,25.6,8.79,38.27,15.21c4.41,2.23,7.18,7.09,6.87,12.18
	c-0.02,0.28-0.04,0.55-0.06,0.83C442.84,403.26,429.59,407.81,422.24,399.89z M402.11,435.62c-20.73-33.74-56.95-67.15-76.71-84.06
	c14.12,0.7,35.73,2.81,59.7,8.77c5.79,23.6,24.36,44.57,37.23,56.78c5.66,5.37,5.89,14.4,0.76,20.33c-0.07,0.08-0.15,0.17-0.22,0.25
	C417.06,444.33,406.75,443.17,402.11,435.62z M322.74,365.29c20.82,18.3,54.38,50.39,71.93,81.09c3.31,5.79,0.47,13.27-5.64,15.49
	c-0.06,0.02-0.13,0.05-0.19,0.07c-4.52,1.62-9.53-0.34-12.03-4.59L322.74,365.29z M311.67,369.95l49.88,84.92
	c2.95,5.02-0.75,11.57-6.38,11.08c-0.04,0-0.09-0.01-0.14-0.01C344.83,465.03,325.58,418.17,311.67,369.95z"/>
<path class="st1" d="M295.67,374.31v-49.07c0,0-52.98-116.54-141.28-116.54c0,0-58.38,90.47,41.21,110.41
	c0,0-94.19,61.34,5.89,141.08c0,0,41.21,18.4,52.98,6.13C266.23,454.05,295.67,374.31,295.67,374.31z"/>
<g>
	<polygon class="st1" points="289.78,362.04 230.91,466.32 248.57,472.45 272.12,441.78 295.67,368.18 	"/>
	<polygon class="st1" points="166.16,306.84 172.05,288.44 242.69,288.44 283.89,325.24 283.89,331.37 248.57,325.24 213.25,312.97 
			"/>
</g>
<g>
	<path class="st1" d="M272.12,306.84c0,0-64.75-49.07-117.73-61.34l5.89-24.54l58.87,6.13l58.87,73.61L272.12,306.84z"/>
	<path class="st1" d="M289.78,343.64v-12.27c0,0-58.87-18.4-88.3-12.27c-29.43,6.13-47.09,49.07-35.32,49.07
		S289.78,343.64,289.78,343.64z"/>
</g>
<path class="st0" d="M301.55,339.33l-6.37-0.29c-1.68-0.08-24.05-0.95-54.52,4c-4.17-4.58-17.14-14.48-50.3-13.51
	c5.36-3.86,11.28-7.29,17.8-10.14c0.09-0.04,0.14-0.12,0.23-0.16c9.71,0.24,19.35,1.47,28.4,5.6c17.88,8.16,32.44,10.47,43.19,10.47
	c14.02,0,21.57-3.93,21.57-3.93c0-9.2-62.55-135.35-153.05-135.35c-27.23,0-30.54,13.8-29.43,24.54
	c1.66,16.15,8.79,70.24,23.55,85.88c10.7,11.34,24.59,13.18,39.53,13.18c0.43,0,0.89-0.02,1.32-0.03
	c-16.5,11.93-28.04,27.84-33.14,46.37c-6.27,22.77-2.25,47.07,11.02,66.68c20.87,30.84,46.57,45.94,78.33,45.94
	c3.08,0,6.21-0.14,9.4-0.43c20.62-1.82,41.56-63.07,52.48-100.52L301.55,339.33L301.55,339.33L301.55,339.33z M214.98,233.81
	c24.39,18.8,43.96,44.57,56.99,65.25c-13.57-11.54-33.33-25.6-59.39-37.4c-4.54-6.82-7.41-13.46-9.19-19.47
	C201.3,235.06,209.22,229.37,214.98,233.81z M168.34,234.52c3.58-1.49,8.03-2.49,13.54-2.58c4.13-0.07,7.78,3.03,8.63,7.24
	c0.96,4.75,2.47,9.94,4.76,15.37c-8.19-3.03-16.9-5.77-26.13-8.14C163.46,244.94,162.9,236.78,168.34,234.52z M142.77,281.08
	c-0.04-0.11-0.07-0.23-0.11-0.34c-4.33-13.19,6.97-26.48,20-23.29c20.61,5.04,38.66,12.13,54.11,19.93
	c-17.99-0.51-41.88,0.96-63.02,9.16C149.26,288.27,144.33,285.79,142.77,281.08z M182.15,307.35c-0.12,0-0.25,0-0.37,0
	c-9.07-0.02-10.03-13.91-1.07-15.4c28.21-4.71,56.13-0.88,61-0.14c18.67,12.29,31.37,24.27,38.03,31.21
	c-11.73-0.04-24.59-3.2-38.22-9.42c-12.9-5.89-26.03-6.68-37.17-6.68c-3.88,0-7.77,0.11-11.62,0.22
	C189.16,307.24,185.63,307.35,182.15,307.35z M169.2,352.14c0.05-0.08,0.1-0.16,0.15-0.24c3.48-5.67,9.3-9.42,15.75-9.83
	c19.62-1.26,31.6,1.36,38.6,4.23c-14.92,3.28-31.03,8-47.18,14.78C171.18,363.31,166.12,357.2,169.2,352.14z M159.45,392.28
	c-0.02-0.27-0.04-0.55-0.06-0.83c-0.32-5.1,2.46-9.95,6.87-12.18c12.68-6.42,25.65-11.38,38.27-15.21
	c-5.06,13.58-14.72,26.18-23.66,35.83C173.52,407.81,160.27,403.26,159.45,392.28z M180.25,437.69c-0.07-0.08-0.15-0.17-0.22-0.25
	c-5.13-5.92-4.9-14.95,0.76-20.33c12.87-12.21,31.43-33.18,37.23-56.78c23.97-5.96,45.58-8.08,59.7-8.77
	c-19.76,16.91-55.98,50.32-76.71,84.06C196.36,443.17,186.04,444.33,180.25,437.69z M226.3,457.34c-2.5,4.25-7.51,6.22-12.03,4.59
	c-0.06-0.02-0.13-0.05-0.19-0.07c-6.11-2.21-8.95-9.7-5.64-15.49c17.56-30.7,51.12-62.79,71.93-81.09L226.3,457.34z M248.07,465.94
	c-0.04,0-0.09,0.01-0.14,0.01c-5.63,0.49-9.33-6.06-6.38-11.08l49.88-84.92C277.53,418.17,258.28,465.03,248.07,465.94z"/>
<path class="st0" d="M301.55,441.38c-3.25,0-5.89-2.74-5.89-6.13v-73.61c0-3.39,2.63-6.13,5.89-6.13s5.89,2.74,5.89,6.13v73.61
	C307.44,438.63,304.81,441.38,301.55,441.38z"/>
<path class="st1" d="M301.55,441.78L301.55,441.78c-3.25,0-5.89-2.75-5.89-6.13v-18.4c0-3.39,2.64-6.13,5.89-6.13l0,0
	c3.25,0,5.89,2.75,5.89,6.13v18.4C307.44,439.04,304.81,441.78,301.55,441.78z"/>
<ellipse class="st0" cx="301.55" cy="334.03" rx="17.66" ry="33.33"/>
</svg>
